<svg xmlns="http://www.w3.org/2000/svg" viewBox="0 0 32 32">
  <!-- Shield outer -->
  <path d="M16 1.5L3.5 6.5v9c0 8.5 5.5 14.5 12.5 16 7-1.5 12.5-7.5 12.5-16v-9L16 1.5z" fill="#1a7a7a"/>
  <!-- Shield inner -->
  <path d="M16 3L5 7.5v8.25c0 7.5 4.75 12.75 11 14.25 6.25-1.5 11-6.75 11-14.25V7.5L16 3z" fill="#0d4f4f"/>
  <!-- Phone handset (earpiece + handle + mouthpiece) -->
  <g transform="translate(13 15.5) rotate(-40)">
    <rect x="-2.8" y="-6.5" width="5.6" height="2.8" rx="1.3" fill="#5de0d6"/>
    <rect x="-1.1" y="-4.5" width="2.2" height="9" rx="1" fill="#5de0d6"/>
    <rect x="-2.4" y="3.5" width="4.8" height="2.8" rx="1.3" fill="#5de0d6"/>
  </g>
  <!-- Signal waves -->
  <path d="M19.5 10.5a4 4 0 0 1 0 5" stroke="#5de0d6" stroke-width="1.1" fill="none" stroke-linecap="round" opacity="0.7"/>
  <path d="M22 9a6.5 6.5 0 0 1 0 7.5" stroke="#5de0d6" stroke-width="0.9" fill="none" stroke-linecap="round" opacity="0.4"/>
</svg>
