<?xml version="1.0" encoding="UTF-8"?>
<svg xmlns="http://www.w3.org/2000/svg" xmlns:xlink="http://www.w3.org/1999/xlink" width="1024" height="1024" viewBox="0 0 1024 1024"><path fill="#020A12" d="M0 0L1024 0L1024 1024L0 1024L0 0Z"/><path fill="#51AFAE" d="M256.491 316.375C267.844 289.533 284.522 283.443 309.189 273.144L346.358 257.438L444.777 215.638C459.569 209.36 474.449 202.83 489.25 196.615C509.854 187.962 522.548 190.741 541.984 199.008L685.972 260.678L720.17 275.104C726.706 277.858 738.876 282.836 744.483 286.712C754.627 293.675 762.468 303.501 767.007 314.937C773.473 330.847 771.467 361.141 771.472 379.363L771.478 462.979L771.503 534.529C771.515 554.576 771.856 575.523 769.532 595.447C766.601 620.898 759.985 645.788 749.891 669.335C722.878 732.154 670.264 784.904 606.543 810.177C543.051 835.695 471.978 834.685 409.236 807.374C346.678 780.164 295.932 726.142 270.593 662.85C261.546 640.251 253.689 608.39 252.995 583.928C252.022 571.321 252.466 554.748 252.468 541.844L252.5 471.342C283.758 482.92 299.306 478.76 328.02 466.844C336.451 463.36 344.939 460.017 353.482 456.817C384.791 444.941 403.801 444.247 432.391 464.427C432.233 460.39 426.785 452.845 423.552 450.012C407.882 436.28 382.424 431.826 362.358 434.899C349.54 436.862 337.595 441.152 324.382 441.444C298.218 442.023 276.272 436.436 256.922 418.738L252.497 414.38L252.456 361.154C252.434 344.965 251.295 332.091 256.491 316.375Z"/><path fill="#5BC5C5" d="M256.491 316.375C263.131 323.023 268.243 331.914 275.247 338.148C296.139 356.741 324.503 367.834 352.512 367.965C386.076 368.803 412.455 355.051 444.294 369.965C453.923 374.475 460.483 378.151 468.076 386.02C474.111 392.264 478.888 399.612 482.147 407.661C485.836 416.904 487.588 428.359 490.337 438.26C497.843 465.299 513.563 486.851 543.691 487.793C556.973 488.208 559.324 485.225 571.308 481.908C546.633 506.293 509.297 512.643 482.712 486.145C467.315 470.797 461.108 448.327 440.97 435.717C441.913 438.73 442.735 441.423 443.781 444.764C447.18 455.614 446.832 467.827 445.481 478.986C445.279 479.32 445.078 479.654 444.877 479.988C441.711 474.826 437.089 468.253 432.391 464.427C432.233 460.39 426.785 452.845 423.552 450.012C407.882 436.28 382.424 431.826 362.358 434.899C349.54 436.862 337.595 441.152 324.382 441.444C298.218 442.023 276.272 436.436 256.922 418.738L252.497 414.38L252.456 361.154C252.434 344.965 251.295 332.091 256.491 316.375Z"/><path fill="#2D9B9B" d="M256.922 418.738C261.326 419.771 266.349 423.704 270.679 425.555C295.73 436.266 316.772 439.022 343.102 432.22C375.028 423.973 412.449 411.498 440.97 435.717C441.913 438.73 442.735 441.423 443.781 444.764C447.18 455.614 446.832 467.827 445.481 478.986C445.279 479.32 445.078 479.654 444.877 479.988C441.711 474.826 437.089 468.253 432.391 464.427C432.233 460.39 426.785 452.845 423.552 450.012C407.882 436.28 382.424 431.826 362.358 434.899C349.54 436.862 337.595 441.152 324.382 441.444C298.218 442.023 276.272 436.436 256.922 418.738Z"/><path fill="#5BC5C5" d="M252.5 471.342C283.758 482.92 299.306 478.76 328.02 466.844C336.451 463.36 344.939 460.017 353.482 456.817C384.791 444.941 403.801 444.247 432.391 464.427C437.089 468.253 441.711 474.826 444.877 479.988C447.287 484.329 459.628 505.874 460.591 509.412C475.593 525.774 489.395 526.802 510.498 524.596C507.712 526.505 503.414 529.636 500.457 530.842C497.69 533.017 489.965 536.059 486.378 537.33C476.619 540.479 466.989 538.713 457.638 535.503C445.726 531.415 440.849 523.22 431.694 516.319C410.888 500.635 386.773 502.377 364.352 511.527C338.153 522.22 327.081 537.833 307.251 554.374C295.548 564.063 282.512 572.018 268.544 577.996C265.565 579.305 255.875 583.589 252.995 583.928C252.022 571.321 252.466 554.748 252.468 541.844L252.5 471.342Z"/><path fill="#020A12" d="M635.333 326.693C644.313 334.462 667.297 355.149 673.502 363.816C677.076 368.858 679.828 374.435 681.654 380.34C688.899 403.422 681.628 425.386 673.927 447.143C663.811 475.548 651.606 503.164 637.41 529.766C628.323 547.322 618.283 564.368 607.334 580.828C577.892 623.659 541.504 661.274 499.672 692.12C490.337 698.869 474.772 710.563 464.045 713.438C435.193 721.171 421.727 710.01 398.761 697.581C392.288 693.941 385.103 690.033 378.921 686.034C384.004 684.902 388.092 683.545 392.833 681.268C419.229 668.59 440.788 647.282 454.167 621.293C458.64 612.605 461.74 604.284 465.058 595.211C475.502 604.79 488.079 614.164 503.06 611.189C525.993 606.635 531.982 583.667 542.241 566.305C554.978 544.75 568.764 523.365 584.56 503.962C588.796 498.758 595.698 494.955 599.187 488.846C603.446 482.413 605.46 473.363 603.756 465.772C600.572 451.583 583.499 441.839 572.085 434.339C578.67 429.671 585.781 424.514 591.61 418.759C610.689 399.925 627.874 372.534 633.695 346.274C635.064 340.101 635.229 332.929 635.333 326.693Z"/><path fill="#020A12" d="M439.343 576.195C444.427 576.094 450.533 578.449 450.978 584.211C453.401 615.563 406.27 667.599 376.784 672.068C370.841 672.079 363.715 670.172 363.617 662.862C363.176 630.021 407.067 579.27 439.343 576.195Z"/><path fill="#020A12" d="M610.046 318.144C642.922 317.992 598.586 415.814 559.02 422.814C551.363 423.51 548.757 417.315 547.819 410.805C543.313 379.533 578.53 322.576 610.046 318.144Z"/></svg>